<?xml version="1.0" standalone="no"?>
<!DOCTYPE svg PUBLIC "-//W3C//DTD SVG 20010904//EN"
 "http://www.w3.org/TR/2001/REC-SVG-20010904/DTD/svg10.dtd">
<svg version="1.0" xmlns="http://www.w3.org/2000/svg"
 width="1440.000000pt" height="720.000000pt" viewBox="0 0 1440.000000 720.000000"
 preserveAspectRatio="xMidYMid meet">
<metadata>
Created by potrace 1.15, written by Peter Selinger 2001-2017
</metadata>
<g transform="translate(0.000000,720.000000) scale(0.100000,-0.100000)"
fill="#000000" stroke="none">
<path d="M5920 2883 c0 -22 -104 -452 -145 -598 -99 -357 -214 -638 -326 -800
-29 -42 -84 -106 -123 -143 -39 -37 -64 -61 -56 -55 9 7 27 14 40 17 14 3 40
9 58 15 17 5 32 7 32 4 0 -3 7 0 15 7 12 10 15 10 15 -1 0 -12 2 -12 9 0 5 7
14 10 20 7 6 -4 11 -2 11 5 0 6 8 9 20 6 11 -3 18 -2 15 3 -3 4 6 11 20 14 13
3 37 11 52 18 15 6 30 12 33 13 19 7 48 18 67 27 11 6 27 7 34 3 7 -5 10 -4 6
2 -8 13 38 34 49 23 5 -5 15 -5 24 1 13 9 12 10 -2 5 -10 -3 -18 -3 -18 0 0 6
53 28 63 26 4 -1 7 3 7 8 0 5 3 9 8 8 11 -2 45 13 65 30 9 8 17 11 17 6 0 -5
4 -4 8 3 4 6 14 13 22 15 8 2 21 9 28 15 7 7 25 16 40 20 26 6 81 39 93 57 4
5 12 5 18 2 6 -4 11 -3 11 2 0 5 17 17 38 28 20 10 44 27 53 36 9 10 19 15 22
11 4 -3 9 2 13 11 3 9 10 13 15 10 5 -3 12 2 15 10 3 9 12 16 19 16 7 0 15 3
17 8 2 4 20 19 40 35 25 19 39 24 44 15 5 -7 3 -8 -6 -3 -9 5 -11 4 -6 -4 11
-16 26 -4 20 17 -4 14 -3 14 8 -2 7 -10 21 -26 31 -35 9 -8 17 -19 17 -24 0
-4 11 -20 25 -35 14 -15 25 -31 25 -36 0 -5 10 -18 23 -30 41 -39 92 -108 89
-119 -2 -7 -1 -9 3 -6 3 4 20 -8 38 -25 78 -73 134 -117 214 -163 34 -20 60
-39 58 -43 -2 -3 4 -6 13 -7 9 -1 55 -17 102 -36 247 -103 452 -124 1290 -131
360 -3 484 -1 364 4 -417 19 -581 85 -742 299 -150 199 -275 521 -407 1045
-30 120 -57 221 -60 224 -10 11 -222 -155 -518 -405 -174 -148 -449 -370 -520
-420 l-45 -33 -30 48 c-105 167 -257 472 -386 775 -76 177 -106 233 -106 200z"/>
<path d="M4860 1155 c-7 -9 -36 -15 -78 -17 -37 -2 415 -5 1005 -6 722 -2
1074 1 1078 8 4 7 -287 10 -907 10 -1094 0 -1080 0 -1048 10 24 8 24 8 -6 9
-17 1 -37 -6 -44 -14z"/>
</g>
</svg>
