<?xml version="1.0" standalone="no"?>
<!DOCTYPE svg PUBLIC "-//W3C//DTD SVG 20010904//EN"
 "http://www.w3.org/TR/2001/REC-SVG-20010904/DTD/svg10.dtd">
<svg version="1.0" xmlns="http://www.w3.org/2000/svg"
 width="2003.000000pt" height="955.000000pt" viewBox="0 0 2003.000000 955.000000"
 preserveAspectRatio="xMidYMid meet">
<metadata>
Created by potrace 1.15, written by Peter Selinger 2001-2017
</metadata>
<g transform="translate(0.000000,955.000000) scale(0.100000,-0.100000)"
fill="#000000" stroke="none">
<path d="M5193 9502 l-5171 -2 -4 -93 c-1 -50 -3 -2142 -3 -4647 0 -4044 2
-4554 15 -4550 8 2 4504 5 9990 7 l9975 2 0 4553 c0 2504 -2 4595 -3 4646 -2
50 -8 92 -14 92 -5 0 -7 -4 -4 -9 4 -7 8 -4223 6 -6924 l0 -159 -162 4 c-90 2
-194 1 -233 -2 -44 -4 16 -7 163 -8 132 -1 231 -6 228 -11 -3 -5 -106 -7 -228
-5 -365 5 -2920 5 -2926 -1 -3 -3 420 -6 939 -6 519 -1 1070 -2 1224 -3 l280
-1 5 -165 6 -165 2 167 2 166 348 -5 c191 -3 348 -6 349 -7 2 -2 4 -1231 3
-1833 l0 -313 -9975 1 -9975 2 -1 306 c-1 631 2 1216 7 1220 3 3 61 4 130 3
68 -2 124 1 124 5 0 4 -53 8 -117 8 -65 0 -124 1 -130 3 -10 3 -13 73 -13 303
l0 299 1088 0 c598 0 1311 3 1584 6 l496 5 5 -23 4 -23 2 23 1 22 1169 0 1170
0 4 -47 3 -48 2 48 2 47 623 1 c342 0 767 0 945 0 222 0 321 3 316 10 -4 7
-295 8 -945 4 -660 -4 -939 -3 -939 4 0 8 305 11 1013 11 556 1 1276 3 1600 7
426 4 587 2 587 -6 0 -8 -181 -11 -651 -11 -431 0 -648 -3 -644 -10 3 -5 15
-10 25 -10 17 0 20 -9 23 -98 l3 -97 2 98 c1 53 3 97 5 98 1 0 279 3 619 6
595 5 616 5 621 -13 4 -17 5 -17 6 -1 1 16 60 17 1093 17 600 0 1089 3 1085 6
-3 4 -492 6 -1087 5 -730 -1 -1080 2 -1080 9 0 7 661 10 2053 11 1128 0 2044
4 2034 8 -10 4 -934 5 -2053 4 l-2035 -3 -9 22 -9 23 0 -23 -1 -22 -742 0
c-409 0 -1129 -3 -1600 -6 l-856 -5 -5 23 c-4 23 -4 23 -6 1 l-1 -23 -1287 0
c-709 0 -1639 -3 -2067 -7 l-779 -6 6 24 c3 13 12 53 19 89 11 56 19 71 56
107 39 37 45 48 54 110 16 106 14 130 -13 159 -13 14 -40 32 -59 40 -19 8 -43
28 -52 44 -9 17 -29 35 -43 40 -29 11 -31 24 -10 64 18 33 18 36 6 36 -5 0
-13 -15 -17 -33 -4 -17 -9 -27 -11 -20 -2 7 -10 10 -18 7 -7 -3 -16 -1 -20 5
-3 6 1 11 11 11 13 0 15 3 7 11 -12 12 -53 -4 -53 -22 0 -6 4 -8 9 -4 6 3 28
-13 50 -35 22 -22 45 -40 53 -40 7 0 21 -13 30 -30 9 -16 32 -35 50 -43 49
-21 91 -74 84 -106 -4 -14 -10 -54 -15 -89 -8 -57 -14 -67 -54 -105 -25 -23
-48 -53 -50 -67 -3 -14 -11 -53 -18 -88 l-12 -62 -178 0 -179 0 -2 298 -3 297
-5 -295 -5 -295 -503 -3 -502 -2 0 152 c-1 1942 1 6912 3 6915 2 1 2809 3
6238 3 3429 0 6239 4 6246 8 13 8 -130 8 -7324 4z m357 -7092 c0 -6 -506 -10
-1577 -10 -868 0 -1881 -2 -2250 -4 -370 -2 -673 1 -673 5 0 9 510 12 3053 17
984 2 1447 -1 1447 -8z m-4520 -10 c0 -7 -166 -10 -500 -10 -300 0 -500 4
-500 9 0 6 201 10 500 10 335 1 500 -2 500 -9z"/>
<path d="M13180 9497 c0 -4 1527 -7 3393 -6 1865 0 3387 3 3382 5 -19 8 -6775
9 -6775 1z"/>
<path d="M2035 9411 c-133 -32 -225 -169 -179 -266 22 -47 69 -69 128 -60 63
11 79 25 20 18 -60 -6 -87 5 -114 50 -24 39 -25 75 -5 125 29 67 101 122 163
122 33 0 78 -31 87 -59 14 -47 -38 -100 -77 -79 -19 9 -25 38 -8 38 6 0 10 7
10 15 0 19 -10 19 -38 -1 -49 -34 -8 -83 61 -70 91 17 113 128 32 161 -37 16
-36 16 -80 6z"/>
<path d="M12436 9308 c-32 -33 -33 -35 -4 -9 21 19 41 31 45 27 5 -4 7 -35 6
-68 -3 -64 -17 -97 -62 -136 l-26 -24 32 21 c17 12 42 38 54 59 12 20 24 39
25 41 9 11 35 -26 49 -70 15 -46 45 -79 70 -79 6 0 20 6 30 14 19 13 18 14 -6
9 -29 -5 -48 16 -68 80 -7 21 -21 43 -30 49 -16 9 -13 15 22 48 28 25 38 42
34 54 -9 24 -36 31 -68 19 -17 -7 -31 -7 -35 -2 -10 17 -25 9 -68 -33z"/>
<path d="M8094 9263 c-29 -6 -67 -47 -62 -70 2 -12 13 -19 33 -20 29 -3 29 -2
8 9 -28 13 -29 29 -5 51 37 33 72 14 72 -39 0 -43 -33 -82 -76 -90 -60 -11
-92 40 -63 99 10 21 9 21 -10 -2 -26 -29 -27 -82 -3 -105 21 -18 66 -14 114
10 34 17 38 17 38 0 0 -27 21 -28 61 -2 37 25 39 25 39 6 0 -30 44 -26 69 6
22 28 25 26 21 -15 -2 -29 17 -24 39 10 15 23 15 23 -3 9 -18 -14 -19 -13 -13
12 11 41 -9 42 -39 3 -29 -38 -41 -43 -51 -19 -3 9 5 26 21 43 l26 27 -34 -4
c-26 -3 -36 -10 -40 -27 -7 -26 -51 -59 -67 -49 -7 4 -9 25 -6 53 4 36 12 52
39 74 19 17 24 24 11 18 -12 -6 -25 -16 -28 -22 -4 -6 -16 0 -30 16 -13 14
-28 24 -32 24 -4 -1 -18 -4 -29 -6z"/>
<path d="M3365 9235 c-51 -14 -90 -49 -101 -92 -9 -35 4 -46 46 -39 l38 6 -11
-36 c-12 -39 -58 -84 -87 -84 -22 0 -45 26 -30 35 18 11 11 26 -12 23 -49 -7
-28 -68 24 -68 60 0 108 40 133 110 18 49 54 161 51 159 0 0 -23 -7 -51 -14z"/>
<path d="M12876 9149 c-27 -32 -53 -59 -58 -59 -6 0 -7 20 -3 50 6 45 5 50
-12 50 -16 0 -19 -6 -15 -31 3 -22 -2 -37 -19 -55 -30 -33 -41 -30 -38 9 3 50
0 77 -10 77 -11 0 -19 -107 -9 -123 5 -8 16 -5 37 11 37 27 39 27 43 0 3 -21
3 -21 33 4 25 22 32 23 43 12 7 -8 19 -14 26 -14 19 0 61 42 61 60 -1 24 -17
70 -24 69 -3 0 -28 -27 -55 -60z"/>
<path d="M7021 8969 l33 -31 -32 -20 c-18 -11 -35 -30 -38 -43 -5 -22 -39 -39
-56 -29 -16 10 -8 45 16 67 l24 23 -34 -1 c-19 -1 -39 -6 -45 -12 -7 -7 -2 -9
18 -5 l28 5 -34 -37 c-40 -42 -71 -48 -71 -13 0 12 7 34 16 47 16 24 16 24 -1
8 -14 -13 -22 -14 -36 -5 -23 14 -36 2 -19 -18 16 -19 -1 -65 -24 -65 -24 0
-30 39 -9 63 l18 21 -31 -22 c-17 -11 -37 -28 -44 -37 -11 -13 -10 -14 4 -9
11 4 16 1 16 -10 0 -19 50 -22 68 -4 8 8 15 8 27 -2 12 -10 21 -10 41 -1 16 7
31 8 38 3 6 -5 42 -9 79 -9 61 0 70 2 84 23 34 53 7 144 -43 144 l-26 0 33
-31z"/>
<path d="M14066 8820 c-14 -17 -30 -50 -37 -73 -6 -23 -25 -57 -42 -74 -34
-37 -53 -43 -37 -14 5 11 10 28 10 38 0 14 -9 9 -35 -19 -20 -21 -37 -38 -40
-38 -2 0 1 14 7 31 15 44 2 48 -32 8 -29 -33 -40 -27 -20 12 18 33 -7 22 -48
-23 -23 -24 -44 -38 -50 -34 -18 11 -14 21 13 36 25 13 33 34 16 44 -15 10
-61 -34 -61 -59 0 -41 36 -42 76 -4 l34 33 -6 -32 c-8 -41 8 -42 36 -1 24 33
38 33 20 0 -9 -18 -8 -21 8 -21 11 0 27 10 35 23 l16 22 0 -22 c1 -28 20 -29
49 -3 l22 21 0 -21 c0 -29 25 -25 67 14 45 39 65 37 56 -5 -5 -28 -5 -29 33
-27 22 2 49 -1 62 -5 14 -5 22 -4 22 2 0 6 -6 11 -14 11 -27 0 -27 19 1 32 32
16 40 33 18 42 -11 4 -29 -8 -55 -36 -42 -46 -65 -44 -38 2 l17 30 -59 -2
c-47 -1 -57 -4 -49 -14 7 -9 4 -19 -11 -34 -53 -53 -33 31 26 109 24 32 44 64
44 70 0 21 -28 11 -54 -19z"/>
<path d="M13436 8832 c-3 -5 -19 -7 -36 -4 -23 3 -30 0 -30 -12 0 -9 7 -19 15
-22 34 -14 6 -95 -47 -136 -13 -10 -18 -18 -11 -18 20 0 93 91 95 119 0 14 2
31 2 36 3 19 17 35 32 35 18 0 18 -39 -1 -110 -23 -86 -22 -89 33 -87 37 2 56
9 83 31 l34 29 3 -31 c2 -18 8 -32 13 -32 6 0 31 20 56 45 25 25 38 43 29 39
-9 -3 -24 0 -33 7 -14 12 -15 11 -9 -8 8 -24 -8 -63 -25 -63 -7 0 -10 14 -7
35 4 34 4 34 -19 19 -21 -13 -25 -13 -39 1 -19 18 -49 6 -59 -25 -7 -21 -43
-46 -52 -36 -3 3 0 32 7 63 21 93 19 127 -7 131 -11 2 -24 -1 -27 -6z"/>
<path d="M7270 8660 c19 -5 251 -9 515 -9 264 -1 789 -4 1168 -7 444 -5 687
-4 687 3 0 6 -376 10 -1052 11 -579 1 -1120 4 -1203 7 -100 3 -138 1 -115 -5z"/>
<path d="M11347 8492 c-16 -18 -32 -77 -28 -102 6 -40 10 -43 36 -26 14 9 25
12 25 7 0 -6 12 -10 28 -10 15 0 44 0 65 -1 21 0 45 4 55 9 12 7 7 9 -20 4
-20 -3 -45 -3 -54 1 -14 5 -13 9 7 24 15 13 19 21 11 26 -7 4 -24 -6 -41 -24
-42 -46 -48 -20 -11 45 28 49 30 56 14 62 -11 4 -23 -1 -36 -16 -13 -17 -18
-19 -18 -8 0 24 -16 28 -33 9z"/>
<path d="M15961 8353 c7 -12 33 -32 57 -45 24 -12 47 -28 49 -35 3 -8 25 -25
48 -39 55 -32 73 -59 78 -122 6 -65 16 -81 68 -106 26 -12 50 -33 57 -48 7
-16 17 -28 22 -28 4 0 16 -21 26 -47 10 -27 28 -61 41 -76 13 -16 23 -32 23
-37 0 -5 16 -14 37 -19 20 -6 48 -22 63 -36 27 -26 28 -26 68 -10 37 15 43 15
63 1 14 -9 33 -13 50 -9 16 3 35 1 41 -4 21 -17 68 -21 106 -11 52 15 75 -1
110 -74 17 -35 38 -70 47 -78 29 -24 45 -67 45 -120 0 -28 7 -64 15 -80 22
-43 28 -37 9 10 -9 22 -14 52 -11 66 7 40 -10 90 -43 121 -16 15 -38 50 -47
76 -17 47 -62 97 -86 97 -7 0 -28 -4 -48 -9 -25 -6 -49 -4 -79 6 -23 8 -52 12
-63 9 -11 -2 -30 2 -44 11 -20 14 -29 14 -62 3 -37 -12 -41 -11 -73 14 -19 14
-43 26 -52 26 -25 0 -82 67 -96 114 -7 22 -23 54 -36 69 -13 16 -24 33 -24 38
0 6 -20 19 -44 29 -57 26 -67 40 -72 97 -2 26 -6 54 -9 60 -5 14 31 57 55 66
11 4 9 5 -5 6 -23 0 -67 -17 -46 -18 11 -1 11 -4 1 -16 -13 -15 -38 0 -133 82
-20 18 -42 33 -49 33 -7 0 -25 12 -41 28 -24 22 -27 23 -16 5z"/>
<path d="M19173 7752 l-173 -87 0 -80 c0 -44 -4 -127 -10 -185 -5 -58 -19
-231 -30 -385 -27 -383 -39 -539 -46 -612 l-6 -61 -74 -34 -74 -34 -267 66
c-148 37 -356 88 -463 114 -107 26 -285 70 -395 98 -110 27 -245 61 -300 74
-55 13 -191 46 -302 73 l-203 50 -282 -131 c-156 -71 -377 -173 -493 -225
-115 -53 -262 -119 -325 -148 -213 -98 -250 -115 -255 -115 -2 0 -97 -57 -212
-127 -114 -69 -232 -140 -261 -157 -29 -17 -202 -121 -385 -230 -182 -110
-366 -219 -407 -244 -41 -24 -122 -61 -180 -82 -58 -21 -220 -82 -360 -135
-386 -147 -997 -377 -1130 -425 -41 -15 -104 -39 -140 -52 -77 -29 -58 -25
-625 -138 -247 -49 -594 -119 -770 -155 -639 -132 -650 -134 -653 -118 -2 9
13 33 35 56 21 22 32 37 26 33 -9 -5 -11 -2 -7 8 3 9 1 16 -6 16 -6 0 -8 5 -5
10 4 6 11 7 17 4 7 -4 8 -2 4 4 -8 13 -36 4 -36 -12 0 -6 4 -17 9 -25 7 -10 1
-23 -20 -43 -16 -16 -29 -36 -29 -44 0 -17 -105 -68 -350 -172 -91 -39 -282
-123 -425 -187 -143 -64 -280 -125 -305 -134 -25 -10 -121 -52 -215 -93 -174
-78 -215 -94 -215 -84 0 7 -119 427 -209 736 -38 129 -86 296 -106 370 -21 74
-46 162 -56 195 -46 154 -68 235 -80 288 -14 61 -15 62 -82 50 -29 -4 -37 -10
-34 -22 33 -112 96 -342 122 -441 30 -115 78 -287 261 -939 36 -128 62 -236
57 -240 -9 -8 -145 -48 -383 -112 -85 -23 -225 -61 -310 -85 -154 -44 -155
-44 -235 -33 -168 23 -159 20 -166 64 l-6 40 -2 -37 c0 -21 -3 -38 -6 -38 -5
0 -94 51 -503 287 -50 29 -134 77 -185 106 -50 29 -168 99 -262 154 -93 55
-189 110 -212 122 l-43 21 -37 -24 c-32 -21 -153 -90 -646 -373 l-59 -33 -86
26 c-48 14 -118 34 -157 45 -38 11 -158 46 -265 78 -174 52 -208 59 -315 65
-310 16 -884 50 -1291 76 -172 10 -334 17 -360 15 -46 -5 -390 -22 -874 -45
-113 -5 -257 -12 -321 -16 l-116 -7 9 73 c5 40 7 75 4 77 -2 3 -13 2 -24 -1
-16 -5 -20 -19 -25 -72 -2 -36 -7 -67 -9 -70 -3 -2 -54 -7 -114 -9 -60 -3
-127 -7 -149 -9 -37 -4 -42 -1 -62 31 -13 19 -23 40 -23 46 0 7 -14 32 -30 56
-22 32 -30 56 -31 90 -2 134 -9 264 -14 279 -7 22 -69 64 -119 79 -21 6 -47
21 -57 32 -11 12 -28 21 -38 21 -25 0 -45 27 -65 87 -21 66 -20 79 4 110 11
14 20 34 20 43 0 10 12 39 26 64 23 40 25 55 20 94 -4 26 -9 63 -12 82 -2 19
-13 46 -25 60 -11 14 -27 38 -37 53 -9 16 -30 50 -47 75 -26 41 -30 56 -31
123 0 62 -5 83 -24 115 -31 49 -41 60 -68 68 -12 4 -31 20 -42 37 -12 16 -26
29 -32 29 -5 0 12 -20 39 -45 65 -61 60 -56 88 -91 22 -28 25 -41 24 -101 -1
-43 5 -83 15 -107 13 -31 16 -84 18 -280 l2 -241 6 235 c5 215 6 232 20 205 8
-16 29 -47 47 -68 23 -25 33 -47 33 -70 0 -17 5 -49 11 -70 9 -32 6 -46 -16
-100 -15 -34 -35 -79 -46 -99 -23 -45 -23 -55 -3 -121 17 -53 48 -97 69 -97 7
0 25 -11 40 -24 16 -13 43 -27 60 -30 18 -4 51 -24 74 -45 37 -34 41 -43 42
-87 5 -251 7 -265 33 -305 14 -21 26 -42 26 -47 0 -4 11 -23 25 -42 13 -18 22
-37 19 -41 -3 -5 -30 -9 -60 -9 -53 0 -54 -1 -54 -28 l0 -28 64 4 63 4 7 -70
c6 -60 4 -74 -13 -103 -12 -19 -21 -41 -21 -49 0 -8 -15 -25 -34 -37 -20 -13
-36 -33 -39 -50 -4 -15 -9 -38 -13 -49 -4 -16 3 -30 24 -52 22 -23 31 -43 36
-84 4 -30 4 -63 1 -73 -6 -19 -6 -19 5 -2 8 12 9 39 5 78 -6 48 -13 67 -37 91
-19 19 -27 36 -23 47 4 9 9 28 12 43 3 17 18 36 38 48 19 12 36 32 40 48 3 15
14 35 22 44 13 14 14 32 9 93 l-7 75 38 2 c21 0 43 2 48 3 6 2 65 3 133 4 95
1 122 4 122 15 0 14 27 16 454 36 152 7 212 7 217 -1 4 -8 107 -6 375 6 401
19 317 21 1109 -29 121 -8 274 -17 340 -20 66 -4 149 -9 185 -11 36 -3 146
-10 245 -16 l180 -10 344 -102 343 -101 67 34 c36 19 192 105 347 192 154 86
288 160 297 164 16 6 17 -10 19 -182 l2 -189 6 187 5 186 90 -52 c50 -29 153
-90 230 -136 77 -45 187 -110 245 -143 202 -115 485 -280 523 -303 l37 -24 0
-91 c0 -85 -2 -93 -27 -120 -16 -16 -33 -29 -39 -29 -6 0 -21 -11 -34 -25 -25
-27 -24 -28 43 -25 21 1 45 -4 53 -10 10 -9 14 -9 14 -1 0 6 7 11 15 11 8 0
15 6 15 14 0 8 6 16 13 19 6 2 8 8 4 13 -5 5 -17 -1 -27 -14 -24 -29 -32 -28
-24 3 3 14 2 25 -3 25 -6 0 -15 -11 -21 -25 -10 -22 -32 -35 -32 -19 0 17 36
64 46 60 8 -3 12 25 13 97 1 56 4 103 6 105 2 2 22 -7 44 -20 33 -19 41 -29
41 -53 1 -37 11 -109 16 -114 2 -2 4 8 4 23 l0 28 57 -7 c32 -4 66 -9 78 -11
11 -2 52 -5 90 -5 63 -1 113 11 475 121 223 67 412 123 420 125 62 16 123 35
128 39 3 3 0 17 -6 31 -11 23 -9 26 21 39 67 29 384 169 525 232 81 36 161 72
177 79 17 7 71 32 120 55 212 98 587 260 601 260 7 0 15 -8 17 -18 4 -16 5
-16 6 0 1 10 7 15 15 12 7 -3 103 13 212 36 110 22 280 57 379 76 99 19 187
37 195 39 16 5 202 44 645 134 160 33 323 67 363 75 40 9 84 16 97 16 l25 0 3
-267 2 -268 3 273 c2 230 4 272 17 272 7 0 18 -7 23 -16 10 -18 -10 -24 477
156 121 45 267 99 325 120 58 21 193 70 300 110 107 39 256 93 330 120 74 27
179 64 233 84 54 20 100 36 102 36 2 0 6 -51 8 -112 l3 -113 2 118 c2 97 5
117 17 117 9 0 21 -11 27 -25 6 -14 15 -25 20 -25 5 0 75 40 156 88 81 49 203
121 272 162 69 40 141 83 160 96 19 12 64 38 100 57 36 18 90 50 120 69 30 19
135 82 232 139 98 57 194 114 215 126 l37 22 24 -40 c13 -21 26 -39 28 -39 3
0 126 56 272 124 293 136 710 328 897 414 68 31 132 54 148 53 16 -1 113 -22
215 -47 103 -25 324 -79 492 -119 168 -41 517 -127 775 -191 l470 -116 228
111 c125 61 232 111 237 111 6 0 11 -36 12 -82 1 -56 4 -30 9 77 8 173 30 504
53 785 8 96 18 227 22 290 4 63 8 122 10 130 1 8 3 33 3 55 l1 41 86 39 c47
22 88 43 90 47 2 3 -26 62 -63 130 -102 188 -110 202 -119 204 -5 2 -87 -36
-181 -84z"/>
<path d="M10253 7723 c-4 -9 1 -21 10 -28 23 -16 21 -37 -4 -69 -26 -33 -74
-37 -64 -5 5 15 3 20 -6 17 -8 -3 -15 -14 -17 -25 -4 -29 29 -38 67 -19 27 14
38 35 65 116 2 8 5 -18 5 -59 1 -102 16 -86 20 22 2 63 21 41 21 -24 0 -60 1
-61 24 -55 15 4 26 1 29 -7 3 -9 9 -9 24 0 16 9 23 9 32 0 10 -9 18 -5 37 18
l24 30 0 -28 c0 -17 4 -26 10 -22 6 4 8 10 5 15 -3 5 -1 19 5 30 9 17 8 20 -9
20 -13 0 -27 -12 -38 -32 l-18 -33 -3 28 c-5 37 -28 45 -56 18 -37 -35 -46
-27 -46 40 0 56 -2 61 -20 56 -11 -3 -20 -2 -20 1 0 4 -16 8 -36 9 -24 1 -37
-3 -41 -14z"/>
<path d="M11105 7711 c-16 -10 -37 -27 -46 -37 -39 -46 -25 -101 23 -89 39 10
60 38 65 90 6 50 23 58 47 23 21 -29 20 -82 0 -99 -13 -10 -17 -10 -24 1 -5 8
-12 11 -15 8 -10 -9 4 -28 20 -28 21 0 55 49 55 79 0 66 -62 91 -125 52z"/>
<path d="M10647 7474 c-4 -4 -7 -29 -7 -55 0 -50 -27 -98 -48 -85 -19 11 -14
26 11 36 17 7 18 9 4 9 -9 1 -27 -10 -39 -24 -25 -29 -41 -24 -29 8 7 19 5 23
-10 24 -13 1 -23 -7 -29 -23 -5 -13 -14 -24 -20 -24 -13 0 -13 16 0 40 9 17 7
18 -22 9 -18 -5 -40 -19 -49 -30 -11 -15 -18 -18 -23 -10 -4 6 -4 16 -1 21 10
16 -7 12 -27 -7 -17 -15 -18 -15 -18 8 0 21 -2 22 -15 8 -20 -20 -9 -52 15
-44 10 3 21 1 25 -5 3 -6 11 -8 16 -4 17 10 79 12 85 3 10 -16 24 -10 36 16
14 32 27 32 21 1 -4 -22 -2 -23 39 -24 25 0 50 7 61 16 15 14 17 13 18 -4 0
-17 1 -17 11 3 13 26 38 38 38 18 0 -8 -4 -15 -10 -15 -5 0 -10 -5 -10 -12 0
-7 9 -3 21 9 26 26 16 47 -17 39 -25 -7 -25 -6 -9 24 9 17 15 41 13 52 -3 22
-19 33 -31 22z"/>
<path d="M2085 7150 c-6 -10 -24 -214 -25 -279 0 -32 -1 -33 -14 -16 -18 24
-46 13 -46 -19 0 -33 20 -44 36 -21 8 10 15 17 17 14 2 -2 -7 -113 -19 -246
-12 -134 -27 -314 -33 -400 -6 -87 -16 -209 -22 -271 -6 -62 -9 -115 -6 -118
3 -3 14 -3 24 0 14 5 19 17 20 53 4 92 34 502 54 723 5 58 13 166 18 240 22
304 23 350 13 350 -6 0 -14 -5 -17 -10z"/>
<path d="M7914 6319 c-4 -7 7 -52 61 -244 1 -6 27 -9 60 -7 47 3 56 7 52 20
-3 10 -19 64 -36 121 -17 58 -32 105 -34 106 -9 8 -98 11 -103 4z"/>
<path d="M15711 3408 l-1 -28 -119 0 c-105 0 -120 2 -124 18 -4 15 -5 15 -6 0
-1 -10 -12 -18 -28 -21 -16 -2 40 -5 122 -6 97 -1 145 -5 135 -11 -8 -5 -11
-12 -7 -16 4 -4 -2 -17 -13 -29 l-21 -22 26 5 c16 3 22 8 15 12 -8 5 -6 11 5
20 8 7 15 19 15 26 0 12 85 14 513 16 l512 3 -507 2 -507 3 -4 28 -4 27 -2
-27z"/>
<path d="M19272 2830 c-2 -14 -2 -109 -2 -212 1 -174 -1 -188 -17 -189 -49 -3
-2282 2 -2438 5 -144 3 -160 3 -80 -4 161 -13 2725 -21 2725 -9 0 7 -26 9 -77
5 -43 -3 -84 -2 -90 2 -9 6 -13 65 -16 217 -1 116 -4 199 -5 185z"/>
<path d="M14035 2439 c-38 -3 470 -6 1130 -6 660 0 1187 2 1170 4 -55 6 -2229
8 -2300 2z"/>
<path d="M10980 2410 c-10 -7 217 -10 635 -9 453 0 651 -3 653 -10 2 -6 8 -11
13 -11 6 0 8 4 4 9 -8 14 236 16 1655 16 707 0 1164 2 1015 5 -482 10 -3959
10 -3975 0z"/>
<path d="M15285 2403 c110 -6 1525 -8 1525 -1 0 4 -354 7 -787 6 -434 -1 -765
-3 -738 -5z"/>
<path d="M3860 2127 c0 -26 -51 -142 -67 -154 -27 -20 86 -17 115 3 23 16 30
58 11 69 -7 5 -3 15 11 30 18 19 20 27 11 44 -13 24 -81 31 -81 8z"/>
<path d="M7500 2062 c-8 -4 -15 -11 -15 -17 -1 -26 -18 -75 -26 -75 -12 0 -12
32 1 64 7 20 6 26 -4 26 -8 0 -17 -13 -21 -29 -3 -16 -16 -37 -27 -47 -21 -19
-21 -19 -15 11 3 17 9 38 12 48 5 11 2 17 -8 17 -9 0 -17 -14 -21 -41 -9 -56
-12 -54 87 -58 l47 -1 0 -80 0 -80 -565 0 -564 0 -4 68 -3 67 -2 -67 c-2 -61
-4 -68 -22 -68 -11 0 -20 -5 -20 -11 0 -6 9 -8 20 -4 19 6 20 2 20 -169 l0
-175 -147 -4 -148 -3 147 -2 147 -2 4 -92 c1 -51 4 30 5 180 l2 272 565 0 565
0 0 -175 0 -175 -272 -3 -273 -2 273 -3 272 -2 0 -184 c0 -111 -4 -187 -10
-191 -5 -3 -56 -7 -112 -7 -75 -1 -89 -3 -53 -7 48 -6 46 -7 -63 -25 -109 -18
-114 -20 -128 -50 l-16 -31 27 30 c25 29 26 29 19 5 l-7 -25 22 25 c18 21 20
22 15 5 -5 -17 -3 -16 16 5 13 15 20 18 17 8 -6 -17 16 -19 30 -3 4 4 2 5 -4
1 -7 -4 -13 -3 -13 2 0 5 9 12 20 15 17 4 20 2 15 -16 -5 -21 -5 -21 6 1 14
26 31 30 22 5 -4 -12 1 -9 15 7 12 14 21 20 22 15 0 -6 -6 -17 -12 -25 -11
-12 -10 -12 4 -2 13 10 17 10 20 0 3 -8 7 -6 11 6 4 10 3 15 -3 11 -6 -3 -10
-2 -10 4 0 5 9 9 19 8 12 -1 17 -7 14 -17 -3 -8 5 -4 16 10 12 14 19 18 15 8
-4 -12 -1 -16 13 -13 10 2 19 4 21 5 8 7 28 4 35 -5 4 -6 10 -1 13 13 4 12 11
22 16 22 5 0 6 -6 2 -12 -6 -10 -4 -10 7 0 15 14 33 16 25 3 -4 -5 2 -8 11 -6
10 2 18 4 18 5 0 4 45 11 77 11 31 0 35 3 25 13 -13 15 -25 15 -46 2 -9 -6
-12 -5 -9 5 3 8 13 13 22 13 9 -1 16 3 16 10 0 6 4 4 10 -4 8 -12 10 -12 16 3
3 9 10 17 15 17 6 0 5 -10 -2 -22 -8 -17 -4 -16 16 7 15 17 24 23 21 13 -6
-21 23 -17 36 5 12 22 29 22 22 0 -2 -10 1 -8 7 5 14 26 31 30 23 5 -5 -14 -4
-15 4 -4 8 11 10 11 15 0 4 -9 6 -10 6 -2 1 7 7 10 14 8 7 -3 20 7 30 22 16
25 18 25 14 6 -7 -30 -1 -29 18 5 16 27 16 27 11 2 l-5 -25 20 25 20 25 -6
-25 c-6 -24 -5 -24 10 3 18 30 30 36 21 10 -4 -12 0 -10 10 5 21 29 38 29 24
0 -11 -22 -10 -22 4 -4 9 11 16 23 16 28 0 4 5 8 11 8 6 0 8 -10 5 -22 -4 -16
-2 -14 6 5 14 31 33 37 23 7 -9 -29 4 -25 15 5 5 14 14 25 20 25 7 0 7 -7 0
-22 -11 -22 -10 -22 4 -4 9 11 16 23 16 28 0 4 5 8 11 8 6 0 8 -10 5 -22 -4
-16 -2 -14 6 5 14 32 32 37 23 6 -5 -15 -4 -19 4 -15 6 4 11 13 11 21 0 8 5
17 12 21 8 5 9 0 6 -14 -8 -31 1 -27 13 5 7 20 12 24 18 14 6 -10 10 -9 15 4
3 10 12 15 21 11 8 -3 15 -1 15 4 0 6 5 10 11 10 6 0 8 -9 4 -22 -5 -19 -3
-18 10 5 19 33 29 35 20 5 -5 -19 -3 -18 10 5 17 29 31 37 21 12 -3 -8 -2 -15
3 -15 5 0 11 9 14 20 3 11 10 20 16 20 6 0 8 -8 5 -17 -3 -11 0 -10 7 3 6 13
21 22 35 22 13 0 22 -4 20 -7 -3 -4 4 -7 14 -8 11 -1 22 7 25 18 9 27 28 24
20 -3 -5 -19 -3 -18 10 5 17 30 30 36 21 10 -4 -12 1 -9 15 7 20 24 21 25 16
2 -3 -12 -1 -20 4 -16 5 3 9 11 9 19 0 8 5 17 11 21 8 4 9 -1 5 -17 -7 -23 -7
-23 8 -5 9 11 16 23 16 28 0 4 5 8 11 8 5 0 7 -5 3 -12 -4 -7 -3 -8 4 -4 7 4
12 1 12 -6 1 -7 8 -1 16 15 18 33 28 35 19 5 -7 -22 -6 -22 8 -4 18 25 51 31
43 9 -5 -13 -4 -14 9 -3 12 10 15 10 15 -1 0 -11 2 -11 10 1 8 13 11 12 24 -5
15 -20 15 -20 30 0 15 19 15 19 16 1 0 -16 2 -17 17 -5 15 12 16 12 9 -5 -7
-20 -7 -20 15 0 22 19 22 19 15 0 -7 -19 -6 -19 14 -1 22 20 28 8 8 -15 -7 -8
-4 -7 8 3 26 22 35 22 28 0 -5 -17 -5 -17 6 0 6 9 16 17 22 17 6 0 5 -7 -3
-17 -11 -15 -10 -14 9 1 23 20 31 10 10 -14 -7 -8 -4 -7 8 3 26 22 35 22 28 0
-5 -17 -5 -17 9 0 8 9 18 17 22 17 4 0 4 -8 0 -17 -5 -15 -4 -16 6 -5 7 6 17
12 22 12 4 0 5 -6 1 -12 -6 -10 -4 -10 7 -2 8 6 24 11 37 12 19 1 21 -2 12
-14 -9 -10 -9 -14 -1 -14 6 0 14 7 17 15 4 8 10 15 15 15 6 0 4 -10 -2 -22
-12 -22 -11 -22 8 -5 25 22 39 22 22 0 -13 -17 -12 -17 6 -2 29 24 57 21 49
-5 -7 -21 -7 -21 15 -2 22 20 22 20 15 0 -7 -19 -7 -19 14 0 23 20 30 10 10
-14 -7 -8 -1 -4 15 9 27 25 38 18 15 -9 -7 -8 -4 -7 8 3 25 21 41 22 24 2 -8
-10 -9 -15 -2 -15 6 0 15 8 21 17 5 10 13 15 17 11 4 -4 1 -16 -7 -25 -13 -17
-13 -17 7 0 24 20 41 23 25 3 -9 -11 -6 -13 14 -13 14 0 25 4 25 9 0 5 -4 6
-10 3 -5 -3 -10 -2 -10 3 0 5 12 10 26 10 18 0 22 -4 15 -11 -21 -21 -11 -30
11 -11 21 19 21 19 14 0 -6 -16 -4 -17 10 -5 9 7 25 14 36 16 17 3 19 1 8 -12
-15 -18 0 -20 19 -2 11 9 13 10 7 0 -4 -7 -3 -13 3 -13 5 0 12 6 15 13 5 9 7
9 12 -1 5 -10 9 -10 22 0 14 11 15 10 8 -7 -6 -16 -5 -18 5 -7 19 18 33 14 18
-6 -13 -16 -13 -16 7 0 25 22 41 24 24 3 -7 -8 -9 -15 -5 -15 4 0 14 8 21 17
7 10 16 15 20 11 4 -4 1 -16 -7 -25 -13 -17 -13 -17 7 -1 27 23 40 23 23 1
-13 -17 -13 -17 7 -1 24 21 41 24 26 5 -9 -10 -6 -13 13 -12 13 0 27 3 31 8
15 15 26 6 13 -10 -13 -17 -13 -17 7 -1 27 23 40 23 23 1 -10 -14 -8 -13 10 2
l24 20 -7 -20 c-6 -16 -5 -18 5 -7 17 16 32 16 23 0 -6 -10 -4 -10 7 0 20 18
33 15 18 -6 -10 -13 -8 -12 10 3 20 17 23 17 18 3 -8 -23 14 -29 37 -9 18 15
19 15 12 -3 -7 -20 -7 -20 15 0 20 17 22 17 16 2 -7 -21 3 -23 22 -5 11 10 13
10 7 0 -4 -7 -2 -13 3 -13 6 0 11 5 11 10 0 6 4 10 10 10 5 0 7 -8 3 -17 -5
-17 -5 -17 8 0 16 20 51 14 43 -7 -7 -18 29 -16 43 3 13 19 30 8 17 -12 -5 -7
-1 -4 9 7 19 21 19 21 -130 38 -81 10 -260 31 -398 48 -137 17 -418 50 -624
75 -205 25 -377 48 -382 51 -28 17 6 24 134 27 l142 3 -142 2 -142 2 -4 98 -3
97 -2 -97 -2 -98 -187 -3 -188 -2 188 -3 c224 -2 240 -13 90 -56 -54 -16 -150
-44 -213 -62 -449 -134 -901 -264 -916 -264 -11 0 -14 35 -14 184 l0 185 48 4
47 3 -47 2 -48 2 0 175 0 175 538 1 c295 1 627 3 737 5 110 2 942 3 1848 4
1315 0 1648 3 1644 13 -2 6 -11 10 -18 7 -8 -2 -798 -6 -1756 -8 -1440 -3
-1743 -1 -1743 10 0 11 -2 11 -9 0 -7 -11 -125 -15 -625 -19 l-616 -6 1 134
c1 74 3 126 6 117 6 -23 26 -23 21 -1 -4 19 -25 26 -48 15z"/>
<path d="M10677 2060 c6 -7 9 -26 6 -45 -7 -41 6 -49 79 -50 l56 -1 -2 30 c-4
40 3 56 21 56 12 0 14 -10 11 -45 -3 -42 -2 -45 21 -45 20 0 22 3 13 12 -18
18 -16 78 3 78 11 0 15 -12 15 -45 0 -29 4 -45 13 -45 8 0 11 15 9 50 -3 32 0
50 7 50 6 0 11 -17 11 -39 0 -47 14 -60 60 -56 19 1 46 4 60 5 14 1 19 4 13 7
-18 7 -17 73 1 73 8 0 16 -6 19 -12 2 -7 8 -10 12 -5 14 12 -11 30 -47 34 -25
3 -30 1 -20 -9 7 -7 12 -27 12 -45 0 -27 -4 -33 -21 -33 -20 0 -21 4 -16 45 5
35 3 45 -7 45 -10 0 -13 -11 -11 -37 4 -38 -10 -67 -26 -57 -5 3 -9 24 -9 48
l0 42 -84 0 -85 -1 3 -38 c1 -21 -1 -43 -5 -49 -13 -21 -29 4 -29 48 0 28 -4
44 -12 44 -9 0 -13 -15 -13 -42 0 -33 -4 -43 -18 -46 -16 -3 -18 2 -15 39 2
37 0 44 -17 47 -15 3 -17 1 -8 -8z"/>
<path d="M1032 1923 l-2 -143 -365 0 c-201 0 -365 -3 -365 -7 0 -5 164 -7 365
-5 l364 2 4 -137 3 -138 2 138 2 137 822 0 c452 0 818 3 815 6 -4 4 -373 6
-821 5 l-815 -2 -4 143 -3 143 -2 -142z"/>
<path d="M19272 1923 l-2 -133 -318 0 -317 0 -14 -22 c-13 -22 -13 -23 6 -5
24 21 40 23 23 2 -9 -11 -9 -15 -1 -15 6 0 14 7 17 15 4 8 10 15 15 15 4 0 6
-6 3 -13 -6 -16 82 -18 106 -2 8 5 32 11 53 11 31 2 36 -1 26 -12 -9 -11 -9
-14 0 -14 6 0 14 7 17 15 4 11 19 15 50 13 38 -1 42 -3 32 -17 -10 -12 -7 -12
8 2 23 19 45 24 26 5 -17 -17 -15 -33 2 -19 11 9 15 9 18 -1 3 -8 7 -6 11 6 5
12 3 15 -6 10 -6 -4 -9 -3 -4 1 4 5 17 10 29 12 18 3 19 1 8 -12 -7 -9 -10
-18 -7 -21 3 -3 10 4 17 15 6 12 15 21 21 21 6 0 5 -9 -2 -22 l-12 -23 25 23
c25 22 52 32 30 10 -7 -7 -12 -17 -12 -22 0 -6 7 -1 15 11 8 11 25 21 40 21
21 0 23 -3 14 -14 -7 -8 -9 -17 -6 -20 3 -3 12 3 19 15 17 28 31 27 18 -1
l-11 -23 17 23 c9 12 21 22 26 22 6 0 5 -7 -2 -15 -7 -9 -10 -18 -6 -22 3 -3
6 -1 6 5 0 7 5 12 10 12 6 0 10 -31 10 -74 0 -69 -2 -75 -22 -79 l-23 -4 23
-2 c21 -1 22 -5 22 -86 l0 -84 -92 -4 -93 -3 92 -2 c78 -2 92 -5 96 -19 3 -10
5 30 6 89 1 92 3 107 19 111 16 4 16 5 0 6 -16 1 -18 21 -21 224 -1 138 -3
172 -5 90z"/>
<path d="M3202 1893 l-2 -103 -249 0 c-138 0 -252 -3 -254 -7 -3 -5 638 -7
1423 -5 l1429 3 4 -33 4 -33 1 33 2 32 117 0 c64 0 114 3 110 6 -3 3 -584 5
-1291 5 l-1285 -2 -4 103 -3 103 -2 -102z"/>
<path d="M12300 1808 c0 -4 271 -8 602 -8 330 0 598 4 594 8 -10 9 -1196 9
-1196 0z"/>
<path d="M13535 1809 c-17 -4 104 -7 267 -8 227 -1 298 -4 301 -13 4 -10 6
-10 6 0 1 10 265 12 1347 12 741 -1 1349 2 1352 5 3 3 -516 5 -1154 6 -637 1
-1368 2 -1624 3 -257 0 -479 -2 -495 -5z"/>
<path d="M16863 1798 c-2 -5 218 -9 489 -9 387 -2 472 -4 396 -12 -99 -10
-136 -24 -53 -21 41 2 44 0 33 -15 -7 -9 0 -5 15 8 25 22 38 19 20 -5 -5 -5
-1 -1 9 8 21 23 32 23 24 1 -6 -17 -5 -17 8 0 7 9 16 17 19 17 4 0 4 -8 1 -17
-5 -17 -5 -17 6 0 6 9 16 17 22 17 6 0 5 -7 -3 -17 -7 -10 -1 -7 14 7 25 22
27 22 22 5 -6 -18 -5 -18 7 -4 18 21 78 21 71 0 -3 -9 5 -5 17 9 18 20 21 21
16 6 -7 -20 -7 -20 15 0 l22 19 -13 -25 -13 -25 22 19 c24 21 51 30 51 16 0
-5 -4 -12 -10 -15 -5 -3 -10 -1 -10 6 0 7 -3 10 -6 6 -3 -3 -3 -11 1 -17 5 -8
15 -4 33 12 20 19 24 20 19 5 -4 -11 -3 -16 3 -12 6 3 10 1 10 -5 0 -6 5 -8
10 -5 15 9 12 27 -2 19 -7 -4 -9 -3 -5 1 15 17 39 14 32 -3 -5 -13 -2 -13 15
3 22 20 28 8 8 -15 -7 -8 0 -4 16 10 25 22 28 22 22 6 -7 -19 -6 -19 14 -1 22
20 28 8 8 -15 -7 -8 -1 -4 15 9 27 25 38 18 15 -9 -7 -8 -1 -4 15 9 27 25 38
18 15 -9 -7 -8 -4 -7 8 3 11 9 29 17 39 17 10 0 15 3 11 8 -10 9 -1487 19
-1493 10z"/>
<path d="M14497 1483 c-26 -2 -45 -8 -42 -13 3 -5 1 -11 -5 -15 -5 -3 -10 0
-10 7 0 12 -22 12 -137 1 -76 -8 -151 -12 -168 -9 -16 2 -43 -2 -60 -9 -16 -8
-169 -48 -340 -90 -170 -43 -311 -78 -311 -79 -1 0 -5 -12 -9 -26 l-8 -25 19
22 c11 12 30 25 44 29 23 6 24 6 10 -12 -8 -11 -3 -9 13 5 15 14 27 21 27 17
0 -5 7 -2 16 5 15 12 16 11 9 -11 l-8 -25 21 25 c15 17 22 20 22 10 0 -12 3
-11 11 3 5 9 14 17 19 17 5 0 7 -8 4 -17 -2 -10 1 -8 7 5 14 26 31 30 22 5 -5
-15 -3 -14 10 2 9 11 17 16 17 11 0 -5 10 -1 22 10 21 19 21 19 15 -1 -7 -19
-6 -19 7 -2 15 20 30 23 21 5 -4 -7 0 -5 8 5 8 9 17 17 20 17 4 0 4 -8 0 -17
-4 -13 -1 -12 10 3 21 27 61 40 52 16 -5 -13 -2 -12 15 3 20 19 21 19 14 -1
-6 -15 -3 -14 15 6 19 21 22 22 17 5 -5 -17 -3 -16 15 5 11 14 19 18 16 10 -3
-10 2 -16 13 -17 10 -1 20 7 23 18 3 10 10 19 16 19 6 0 8 -8 5 -17 -3 -10 2
-7 10 7 13 22 15 22 16 6 0 -20 0 -20 15 0 15 19 15 19 8 -1 -5 -17 -3 -16 15
5 19 21 21 22 16 5 -7 -20 -6 -20 8 -1 20 25 52 31 44 8 -4 -10 3 -6 14 8 l21
25 -5 -25 c-6 -25 -6 -25 5 -2 14 26 31 30 22 5 -5 -15 -3 -15 11 2 17 19 17
19 11 1 -6 -20 -5 -20 15 -1 20 19 21 19 14 -1 -6 -15 -3 -14 15 6 13 14 21
18 18 9 -7 -21 24 -21 41 0 12 14 13 14 8 -3 -6 -16 -4 -17 9 -6 8 7 15 9 15
5 0 -5 9 0 20 10 20 18 21 18 14 -1 -7 -19 -7 -19 15 0 15 14 20 15 16 5 -4
-11 3 -14 30 -14 19 1 37 4 41 7 3 4 12 4 19 2 7 -3 15 2 18 10 4 9 11 16 16
16 6 0 8 -7 5 -15 -4 -8 -1 -15 5 -15 6 0 11 6 11 14 0 8 5 18 11 22 8 4 9 0
4 -15 -5 -17 -2 -21 14 -21 11 0 22 9 26 20 9 27 24 25 19 -2 -2 -13 -1 -16 2
-8 4 8 11 21 17 28 10 12 -14 13 -126 5z"/>
<path d="M12965 1164 c-225 -57 -424 -103 -441 -104 -27 0 -31 -3 -31 -29 l0
-29 19 21 c17 21 18 21 11 2 -5 -17 -3 -16 15 5 15 17 21 20 22 10 0 -12 2
-12 9 -2 6 10 69 13 282 15 237 1 247 2 77 4 -109 2 -198 7 -198 12 0 5 8 15
17 22 15 12 16 12 10 -6 -6 -18 -5 -18 12 3 23 26 36 29 27 5 -4 -11 2 -8 14
7 19 23 21 24 33 8 12 -15 14 -15 25 3 15 24 33 25 26 2 -5 -15 -4 -16 5 -3 6
8 11 11 11 6 0 -5 11 1 25 14 14 13 25 20 25 16 0 -5 7 -3 15 4 15 13 21 2 8
-16 -5 -5 3 2 16 16 l23 25 -5 -25 -6 -25 16 23 c8 12 20 22 25 22 6 0 5 -7
-2 -15 -7 -9 -10 -18 -7 -22 4 -3 12 6 18 21 7 14 16 26 21 26 5 0 4 -9 -2
-20 -16 -31 -3 -24 15 8 15 26 15 26 9 2 l-7 -25 21 25 c12 14 21 21 22 16 0
-5 8 -2 17 5 15 12 16 12 10 -6 -6 -16 -3 -15 14 5 17 21 20 22 15 5 -5 -17
-3 -16 15 5 17 20 20 21 15 6 -7 -20 -7 -20 15 0 22 19 22 19 16 -1 -7 -19 -6
-19 10 1 10 12 29 25 43 29 22 7 23 6 11 -9 -8 -9 -11 -19 -8 -23 4 -3 12 6
18 21 7 14 16 26 21 26 5 0 4 -10 -3 -22 -8 -17 -4 -16 16 7 16 18 24 23 21
13 -7 -24 1 -23 14 2 9 17 8 20 -7 19 -10 -1 -202 -48 -428 -105z"/>
<path d="M11285 1093 c-5 -15 -4 -16 6 -5 7 6 17 12 22 12 4 0 5 -6 1 -12 -5
-9 -2 -8 9 1 16 12 17 12 11 -5 -7 -18 -6 -18 12 -3 17 13 25 15 50 10 4 0 1
-8 -6 -16 -7 -9 -8 -15 -2 -15 5 0 12 6 15 14 3 8 15 14 27 13 11 -1 18 -7 16
-13 -3 -7 1 -14 7 -17 22 -8 141 -6 128 3 -8 5 -3 7 15 7 16 0 23 -2 17 -4 -7
-3 -13 -9 -13 -14 0 -4 7 -5 17 -2 12 5 14 3 8 -8 -5 -8 2 -5 15 6 23 19 23
19 16 1 -7 -20 -7 -20 15 0 22 19 22 19 15 0 -7 -19 -6 -19 14 -1 22 20 28 8
8 -15 -7 -8 -4 -7 8 3 27 22 40 22 23 0 -13 -17 -13 -17 7 0 11 9 24 17 29 17
4 0 1 -8 -6 -17 -10 -14 -8 -13 10 2 24 19 24 20 17 1 -7 -19 -6 -19 14 -1 22
20 28 8 8 -15 -7 -8 -4 -7 8 3 27 22 40 22 23 0 -11 -15 -10 -15 9 1 12 11 43
21 69 24 81 7 61 12 -53 12 -60 0 -171 8 -247 17 -134 16 -138 16 -153 -3 -15
-19 -15 -19 -9 2 5 19 0 22 -56 28 -96 10 -116 8 -124 -11z"/>
</g>
</svg>
