<?xml version="1.0" standalone="no"?>
<!DOCTYPE svg PUBLIC "-//W3C//DTD SVG 20010904//EN"
 "http://www.w3.org/TR/2001/REC-SVG-20010904/DTD/svg10.dtd">
<svg version="1.0" xmlns="http://www.w3.org/2000/svg"
 width="960.000000pt" height="165.000000pt" viewBox="0 0 960.000000 165.000000"
 preserveAspectRatio="xMidYMid meet">
<metadata>
Created by potrace 1.15, written by Peter Selinger 2001-2017
</metadata>
<g transform="translate(0.000000,165.000000) scale(0.100000,-0.100000)"
fill="#000000" stroke="none">
<path d="M0 825 l0 -825 4800 0 4800 0 0 825 0 825 -4800 0 -4800 0 0 -825z
m1481 463 c-55 -27 -133 -106 -174 -178 -34 -59 -32 -41 -38 -305 -1 -54 3
-99 9 -112 7 -12 12 -30 12 -40 -1 -11 -9 -3 -23 22 -20 37 -21 52 -19 195 3
179 11 215 60 290 50 75 93 112 162 137 54 19 60 14 11 -9z m7339 -193 c3 -18
11 -30 20 -30 15 0 60 -42 60 -56 0 -4 -15 -2 -34 6 -40 17 -46 13 -46 -33 l0
-34 -42 7 c-82 12 -78 8 -78 96 l0 80 57 -3 c56 -3 58 -4 63 -33z m191 -245
c38 0 37 -20 -4 -45 -44 -27 -51 -29 -43 -16 8 12 1 14 -62 13 -80 -1 -124
-76 -81 -137 l22 -30 -26 24 c-20 18 -27 20 -27 10 0 -8 4 -20 10 -27 5 -7 1
-4 -10 6 -11 9 -24 38 -28 64 -8 43 -7 47 14 59 13 7 26 20 29 30 3 10 15 21
26 24 10 4 19 10 19 14 0 5 21 9 46 9 26 1 49 4 52 7 3 3 12 3 20 0 7 -3 27
-5 43 -5z m-1128 -221 c-7 -9 -11 -19 -8 -22 3 -4 2 -5 -1 -2 -9 6 -64 -23
-64 -34 0 -5 -9 -7 -21 -4 -11 3 -31 0 -44 -7 -13 -7 -32 -10 -43 -8 -28 8
-23 -22 6 -33 17 -6 22 -14 18 -26 -5 -13 -4 -14 8 -4 11 9 15 7 19 -9 3 -11
1 -23 -4 -26 -5 -3 -9 1 -9 8 0 7 -6 4 -12 -6 -8 -15 -8 -21 0 -24 21 -7 57
-41 44 -42 -7 0 -10 -5 -6 -12 4 -7 3 -8 -5 -4 -7 4 -15 -2 -20 -16 -6 -13
-10 -18 -10 -11 -1 7 -8 10 -16 7 -9 -4 -15 0 -16 7 0 9 -3 8 -7 -3 -7 -15 -9
-15 -28 1 -34 27 -54 76 -54 129 0 41 5 55 29 80 15 17 24 35 20 39 -5 5 -5
14 0 21 6 10 14 10 35 2 15 -5 38 -10 52 -10 32 0 94 33 119 63 l20 24 6 -31
c3 -19 0 -37 -8 -47z m-335 54 c-1 -5 6 -33 15 -64 13 -45 15 -67 7 -120 -16
-100 -31 -159 -42 -159 -5 0 -7 9 -3 19 4 14 0 23 -15 31 -21 11 -27 36 -9 42
5 2 11 10 13 18 2 8 6 28 11 44 5 18 4 31 -4 35 -6 4 -14 25 -17 47 -4 31 0
50 16 77 20 34 33 47 28 30z m836 -125 c-3 -5 -1 -14 5 -21 14 -17 11 -116 -5
-147 -7 -14 -29 -41 -50 -60 l-37 -35 22 33 c12 17 18 32 12 32 -6 0 -11 -4
-11 -10 0 -5 -7 -10 -15 -10 -8 0 -15 -4 -15 -10 0 -5 -4 -10 -10 -10 -5 0
-10 15 -10 34 0 30 -2 33 -25 28 -24 -4 -25 -3 -15 24 6 15 9 33 6 39 -2 6 9
28 25 50 16 21 29 32 30 24 1 -8 4 -3 8 10 4 14 13 26 21 29 12 3 12 2 2 -6
-11 -8 -11 -10 1 -15 21 -8 49 26 41 49 -6 19 -5 19 10 0 8 -10 13 -23 10 -28z
m-2704 -168 c5 0 10 6 13 13 7 21 18 1 18 -34 0 -69 11 -109 40 -141 16 -18
29 -39 29 -45 0 -7 7 -13 16 -13 12 0 15 -6 10 -22 -3 -13 -6 -37 -6 -55 0
-26 -3 -31 -17 -26 -16 6 -63 55 -92 96 -18 25 -41 166 -31 187 4 8 6 31 4 50
-1 19 0 25 3 13 2 -13 8 -23 13 -23z m1737 -7 c5 3 15 1 23 -4 13 -9 13 -10 0
-6 -8 2 -20 -3 -27 -12 -18 -23 -16 -36 3 -20 15 12 16 11 9 -11 -4 -14 -4
-22 0 -18 4 4 16 3 27 -3 15 -8 18 -17 12 -47 -6 -35 -5 -36 9 -17 15 19 16
18 13 -18 -4 -41 -37 -84 -92 -116 l-31 -19 9 39 c7 26 7 48 0 69 -9 25 -8 30
4 30 8 0 12 5 9 10 -4 6 -11 8 -16 5 -12 -8 -12 -5 6 46 9 24 14 52 11 62 -6
26 4 53 14 37 4 -7 12 -10 17 -7z"/>
</g>
</svg>
