<?xml version="1.0" standalone="no"?>
<!DOCTYPE svg PUBLIC "-//W3C//DTD SVG 20010904//EN"
 "http://www.w3.org/TR/2001/REC-SVG-20010904/DTD/svg10.dtd">
<svg version="1.0" xmlns="http://www.w3.org/2000/svg"
 width="1778.000000pt" height="1178.000000pt" viewBox="0 0 1778.000000 1178.000000"
 preserveAspectRatio="xMidYMid meet">
<metadata>
Created by potrace 1.15, written by Peter Selinger 2001-2017
</metadata>
<g transform="translate(0.000000,1178.000000) scale(0.100000,-0.100000)"
fill="#000000" stroke="none">
<path d="M5905 5880 c-3 -5 -29 -21 -58 -35 -29 -15 -62 -36 -74 -47 -30 -28
-47 -82 -40 -126 7 -38 51 -92 76 -93 9 0 -24 -12 -74 -25 -100 -27 -217 -79
-270 -120 -46 -35 -74 -82 -96 -163 -14 -54 -18 -60 -18 -31 0 44 20 100 52
148 24 35 25 41 15 102 -15 101 -5 165 33 214 l32 41 -32 -30 c-39 -36 -50
-60 -62 -140 -4 -34 -21 -90 -37 -125 -51 -113 -66 -247 -40 -359 11 -49 11
-51 -15 -71 -29 -23 -34 -49 -15 -68 9 -9 9 -18 0 -37 -10 -21 -9 -25 3 -25
11 0 15 -12 15 -48 0 -41 4 -51 24 -62 14 -7 31 -10 39 -7 8 3 23 -3 33 -14
17 -19 14 -23 -17 -20 -9 1 -16 -4 -17 -11 -1 -7 -3 -26 -6 -41 -5 -31 7 -76
30 -119 17 -31 18 -42 3 -33 -5 4 -15 -7 -22 -24 -6 -17 -17 -31 -24 -31 -15
0 -16 -6 -4 -29 6 -10 6 -23 1 -31 -7 -12 -14 -10 -35 10 -29 27 -52 33 -62
18 -4 -7 -1 -8 8 -3 12 7 12 6 1 -7 -17 -21 -42 -12 -42 13 0 22 -11 24 -28 7
-18 -18 -15 -38 6 -39 15 0 14 -1 -2 -8 -16 -6 -12 -10 22 -18 38 -10 60 -2
30 10 -7 3 -4 6 8 6 11 1 34 -10 50 -24 31 -26 22 -35 -10 -10 -14 11 -23 12
-33 4 -7 -6 -13 -8 -13 -3 0 4 -13 -5 -30 -21 -33 -32 -99 -45 -167 -33 -21 4
-33 2 -33 -4 0 -6 -8 -4 -18 5 -18 16 -32 14 -32 -5 0 -5 6 -6 13 -2 8 5 8 3
-2 -9 -7 -9 -17 -15 -21 -12 -5 3 -12 0 -16 -6 -4 -8 -3 -9 4 -5 16 10 15 -7
0 -23 -11 -10 -9 -11 7 -5 21 8 21 6 -9 -16 -11 -8 -17 -10 -13 -3 4 6 4 14
-1 17 -8 5 -52 -83 -52 -103 0 -5 9 -7 21 -4 13 4 18 11 14 22 -3 8 -3 12 1 9
10 -11 44 11 44 28 0 9 -5 12 -12 8 -7 -5 -8 -3 -3 5 5 9 10 10 18 2 8 -8 20
-3 44 15 71 54 173 83 173 49 0 -18 -11 -19 -30 -2 -12 10 -12 9 -1 -5 19 -25
7 -48 -20 -41 -15 4 -20 2 -15 -5 4 -6 -5 -13 -21 -15 -16 -3 -9 -4 15 -3 49
2 54 -12 15 -36 -16 -10 -23 -18 -16 -18 6 0 15 5 18 10 8 14 25 13 25 -1 0
-17 -40 -49 -62 -49 -11 0 -17 4 -14 9 3 5 -8 14 -26 20 -39 14 -58 14 -58 0
0 -6 8 -8 19 -4 11 3 22 1 26 -5 3 -6 11 -8 16 -5 5 4 9 2 9 -3 0 -8 -61 -20
-117 -24 -7 -1 -13 -5 -13 -10 0 -4 -7 -8 -17 -8 -9 0 -13 -3 -10 -6 4 -4 -5
-21 -19 -37 -22 -26 -25 -37 -20 -71 4 -23 14 -52 24 -65 16 -22 26 -24 98
-27 52 -1 93 -8 113 -19 49 -25 111 -85 111 -107 0 -10 4 -17 9 -14 5 3 12 -2
16 -12 3 -9 7 -19 8 -22 1 -3 28 -17 60 -32 32 -15 64 -33 71 -40 7 -7 27 -24
44 -36 21 -16 29 -30 27 -44 -5 -24 -15 -37 -15 -18 0 10 -3 10 -17 -1 -15
-11 -16 -11 -5 1 6 8 12 20 12 27 0 10 -6 10 -25 -3 -28 -18 -31 -14 -13 19
10 20 10 21 -6 8 -10 -8 -15 -23 -12 -33 2 -11 -6 -34 -18 -52 l-22 -33 2 61
c2 50 1 55 -5 26 -5 -19 -9 -29 -10 -22 0 7 -5 10 -11 7 -6 -3 -10 4 -10 17 0
17 -3 19 -9 9 -6 -9 -11 -10 -15 -2 -4 6 -4 16 -1 21 3 6 1 10 -4 10 -6 0 -11
-4 -11 -9 0 -6 -12 -3 -27 5 -36 18 -43 18 -43 -2 0 -8 5 -12 10 -9 15 9 12
-8 -6 -33 -15 -22 -16 -22 -42 -4 -15 10 -34 23 -42 27 -13 8 -13 7 0 -10 14
-17 13 -18 -15 -11 -69 17 -85 18 -85 7 0 -6 4 -11 8 -11 5 0 9 -6 9 -12 1
-23 8 -43 18 -51 6 -5 1 -6 -10 -2 -60 21 -118 36 -122 32 -2 -3 13 -11 34
-17 21 -7 52 -20 68 -28 17 -9 36 -15 43 -14 6 2 12 -2 12 -9 0 -11 -15 -9
-54 7 -14 5 -17 4 -12 -4 4 -7 3 -12 -3 -12 -5 0 -12 8 -14 18 -4 16 -5 16 -6
0 -1 -12 -10 -18 -28 -19 -17 -1 -21 -3 -10 -6 25 -6 21 -23 -5 -24 -22 -1
-22 -1 2 -9 l25 -8 -25 -3 c-14 -1 -34 -2 -45 -1 -12 0 -4 -7 20 -18 l40 -19
-40 6 c-22 3 -47 6 -55 6 -8 0 -25 13 -38 29 -15 17 -34 28 -50 29 -15 0 -35
4 -46 8 -17 7 -17 8 -2 24 16 16 15 17 -16 17 -25 0 -29 -3 -18 -10 13 -8 13
-10 -2 -10 -9 0 -23 7 -32 15 -8 8 -29 18 -47 22 -30 6 -31 7 -11 14 12 5 22
13 22 19 0 6 -4 8 -10 5 -5 -3 -18 -1 -29 5 -11 5 -22 6 -25 1 -3 -5 -14 -11
-25 -14 -14 -3 -18 -1 -14 9 3 8 0 14 -6 14 -6 0 -11 -14 -11 -32 0 -29 -1
-30 -13 -14 -12 16 -15 17 -20 3 -3 -9 1 -18 11 -22 14 -5 14 -7 2 -15 -8 -5
-19 -5 -25 0 -6 5 -10 -2 -11 -21 -1 -22 2 -27 11 -19 10 9 11 3 4 -27 -14
-62 -10 -99 15 -158 14 -30 21 -55 16 -55 -11 0 -50 103 -50 133 -1 21 -1 22
-15 3 -14 -18 -15 -16 -15 27 0 27 -5 47 -11 47 -6 0 -9 -20 -8 -52 3 -43 0
-54 -13 -56 -24 -5 -58 33 -62 69 -2 16 -6 32 -9 36 -10 9 -76 -69 -120 -142
-39 -65 -42 -75 -43 -145 0 -41 -5 -84 -11 -95 -6 -11 -25 -65 -42 -119 -27
-88 -29 -102 -16 -116 9 -10 16 -47 20 -100 6 -100 13 -140 28 -158 7 -9 6
-25 -2 -53 -7 -23 -14 -71 -16 -108 -2 -36 -12 -94 -24 -128 -23 -70 -26 -109
-11 -201 7 -42 7 -75 1 -100 -14 -50 2 -215 24 -267 10 -22 20 -34 22 -27 3 6
9 12 15 12 6 0 4 -8 -5 -18 -10 -10 -17 -29 -17 -43 0 -27 33 -141 61 -209 10
-25 20 -54 24 -66 8 -29 119 -139 162 -159 52 -25 125 -43 204 -51 l68 -7 6
-46 c4 -25 11 -58 16 -72 6 -15 11 -51 12 -80 1 -30 7 -53 12 -52 6 1 11 -43
11 -111 1 -90 6 -120 22 -156 12 -26 24 -76 27 -120 14 -182 17 -207 31 -237
8 -17 14 -42 14 -56 0 -13 4 -37 9 -53 5 -16 12 -46 16 -66 l6 -38 1220 0
c1198 0 1220 0 1217 19 -2 12 12 33 38 58 l42 38 7 125 c4 78 3 167 -4 235 -7
61 -13 166 -14 235 -2 115 -5 131 -34 200 -17 41 -34 91 -38 111 -8 51 -87
209 -120 239 -48 44 -50 58 -11 74 29 12 40 12 73 1 21 -8 59 -14 86 -15 26 0
47 -4 47 -9 0 -4 21 -25 48 -46 l47 -37 86 4 c117 5 179 46 179 118 0 10 6 23
13 27 8 4 21 19 30 34 14 21 15 30 5 56 -10 27 -9 33 15 59 34 37 34 56 -2
109 -19 28 -27 51 -24 67 5 27 -26 57 -81 78 -21 7 -25 15 -21 32 6 27 10 142
7 213 -1 28 -2 57 -1 65 1 17 -51 321 -62 365 -1 6 1 18 5 27 9 19 -39 131
-67 159 -30 31 -58 90 -48 103 5 6 19 37 31 69 l22 58 -21 68 c-12 38 -21 78
-21 88 0 10 -9 36 -20 57 -10 22 -22 66 -26 99 -5 41 -20 86 -46 136 -34 68
-38 83 -38 150 0 66 -4 83 -36 145 -20 39 -41 73 -45 74 -5 2 -9 8 -9 13 0 15
-140 151 -190 186 -50 33 -210 107 -217 99 -12 -11 -44 35 -50 70 -18 119
-132 242 -244 264 -76 15 -149 50 -149 70 0 10 -7 23 -15 30 -19 16 -19 40 -1
66 16 22 46 130 46 163 0 12 -5 21 -11 21 -5 0 -8 -4 -4 -9 3 -5 1 -12 -5 -16
-12 -8 -13 1 -1 43 6 20 6 30 0 27 -5 -4 -9 1 -9 9 0 8 5 18 11 21 7 5 5 15
-6 31 -14 23 -14 24 10 30 35 9 38 3 25 -43 -7 -21 -10 -50 -7 -63 3 -21 5
-19 6 8 0 18 5 40 11 50 5 9 14 29 20 45 5 15 24 34 43 43 38 18 62 65 43 84
-16 16 -16 71 1 77 13 5 39 43 29 43 -2 0 -11 -7 -20 -15 -13 -14 -15 -8 -13
54 2 63 0 68 -14 55 -25 -23 -39 3 -39 73 0 48 4 65 15 70 24 9 76 90 81 126
6 44 -2 53 -85 95 -69 35 -73 40 -96 96 -26 65 -67 120 -105 144 -20 13 -18 8
10 -23 19 -21 29 -34 21 -30 -8 4 -31 10 -52 12 -49 6 -53 -14 -8 -40 20 -11
29 -22 25 -32 -3 -8 -2 -15 3 -15 5 0 8 -8 7 -17 -1 -11 10 -19 32 -24 19 -4
39 -12 45 -19 10 -10 8 -11 -8 -6 -47 17 -144 36 -190 37 -29 1 -39 4 -22 6
23 4 27 9 27 39 0 44 -32 108 -72 145 -34 30 -122 79 -143 79 -7 0 -15 7 -19
15 -6 17 -22 20 -31 5z m-10 -50 c-3 -5 0 -10 7 -10 7 -1 -3 -9 -22 -20 -23
-12 -39 -15 -47 -9 -7 7 -14 6 -18 -2 -4 -6 -2 -15 4 -19 9 -5 7 -11 -5 -21
-12 -9 -15 -10 -10 -1 4 6 2 12 -3 12 -10 0 -15 -14 -12 -33 1 -5 -3 -6 -9 -2
-5 3 -10 2 -10 -3 0 -5 10 -13 23 -17 13 -4 17 -8 10 -12 -21 -8 -15 -20 10
-19 12 0 21 -4 20 -11 -8 -37 173 -62 227 -33 14 8 34 15 44 17 11 2 22 6 25
10 3 3 -4 3 -16 0 -25 -6 -26 -5 -17 17 5 12 10 13 25 5 24 -12 24 -31 2 -57
-15 -17 -35 -22 -108 -26 -49 -4 -106 -9 -127 -12 -27 -4 -45 0 -71 18 -115
75 -74 194 81 237 2 1 0 -3 -3 -9z m425 -1280 c-5 -18 -7 -37 -4 -41 3 -5 0
-9 -5 -9 -6 0 -11 -10 -11 -21 0 -18 2 -19 15 -9 13 11 15 8 15 -16 0 -16 -9
-43 -19 -61 -19 -30 -19 -32 -2 -47 10 -9 24 -16 32 -16 14 -1 60 -30 46 -30
-3 0 -28 8 -54 19 -26 10 -54 16 -60 14 -19 -7 -34 -77 -43 -198 -4 -60 -8
-92 -10 -70 -1 24 -4 32 -7 20 -3 -11 -9 -22 -14 -26 -5 -3 -4 -20 1 -39 8
-26 6 -37 -5 -50 -8 -9 -15 -26 -15 -37 0 -11 -11 -32 -24 -46 -13 -14 -21
-28 -18 -31 3 -3 -2 -6 -11 -6 -9 0 -19 5 -22 11 -4 6 -14 8 -22 5 -10 -4 -13
-2 -10 8 4 9 -2 17 -14 21 -11 4 -18 13 -15 20 2 7 -1 28 -7 47 -7 19 -10 56
-8 84 3 49 3 49 80 100 68 45 76 54 79 85 2 18 12 53 22 76 11 24 20 47 20 53
0 13 93 230 97 226 1 -1 -2 -17 -7 -36z m-815 -288 c8 -70 20 -95 35 -72 8 12
9 9 6 -10 -2 -14 0 -33 5 -42 6 -10 5 -19 -2 -23 -7 -5 -4 -14 8 -28 10 -11
12 -17 6 -13 -22 12 -14 -7 14 -36 15 -15 22 -28 17 -28 -5 0 -15 9 -22 20 -7
11 -17 20 -23 20 -6 0 -8 -9 -4 -20 10 -32 -41 -25 -152 20 -87 35 -116 56
-113 76 1 4 -4 10 -10 14 -17 11 -4 60 16 60 8 0 13 -4 9 -9 -7 -12 28 -32 47
-29 8 2 13 -7 13 -23 -1 -18 4 -25 13 -22 10 4 12 -2 7 -23 -5 -27 -5 -27 5
-6 6 15 6 30 1 41 -7 13 -4 27 10 50 10 17 19 38 19 46 0 8 3 15 8 15 15 0 73
60 67 70 -3 5 -2 10 3 10 6 0 13 -26 17 -58z m1365 -385 c1 -19 3 -18 15 8
l14 30 -6 -30 c-3 -16 -3 -27 1 -24 13 12 81 -19 78 -35 -2 -10 4 -16 15 -17
16 -1 16 -2 1 -6 -14 -3 -15 -9 -7 -30 5 -15 7 -34 4 -42 -5 -13 -8 -12 -18 6
-12 22 -13 22 -25 3 -7 -12 -8 -20 -2 -20 6 0 1 -18 -10 -41 -12 -23 -24 -38
-27 -35 -3 3 2 17 11 31 9 14 12 25 7 25 -6 0 -8 6 -6 13 7 17 -6 34 -29 38
-23 5 -48 87 -39 131 6 31 23 28 23 -5z m-2368 -409 c-7 -7 -12 -23 -12 -37 1
-23 2 -24 13 -9 7 9 17 24 22 33 9 15 15 16 51 5 35 -10 41 -16 38 -36 -1 -13
2 -24 7 -24 5 0 9 6 9 14 0 22 16 28 43 15 36 -16 65 -130 45 -171 -6 -12 -5
-18 4 -18 21 0 -6 -20 -40 -29 -39 -12 -41 -7 -4 14 l27 15 -30 -6 c-20 -4
-26 -3 -17 4 11 7 8 11 -10 15 -37 10 -53 8 -74 -10 -23 -21 -64 -45 -64 -39
0 3 8 12 17 22 13 13 14 19 5 22 -6 2 -12 8 -12 13 0 4 7 6 15 3 8 -4 22 -3
31 0 13 5 14 9 4 21 -7 8 -16 12 -21 10 -4 -3 -19 -3 -33 1 -22 5 -25 12 -31
84 -7 79 -3 100 18 100 8 0 8 -3 -1 -12z m899 -50 c0 -10 2 -10 6 0 2 6 9 9
15 6 6 -4 31 -8 57 -9 60 -2 101 -24 145 -78 20 -24 36 -46 36 -49 0 -3 -11
-5 -25 -5 -17 0 -23 3 -18 11 5 7 1 4 -9 -6 -9 -10 -27 -18 -40 -18 -23 1 -23
1 4 17 l27 17 -31 28 c-40 35 -47 35 -54 -2 -4 -16 -13 -30 -20 -30 -15 0 -37
-39 -48 -81 -3 -15 -12 -29 -20 -32 -15 -6 -12 16 5 39 16 21 59 125 49 119
-5 -3 -10 -1 -10 6 0 7 -11 -2 -25 -21 -29 -39 -32 -48 -8 -29 15 13 15 12 3
-8 -8 -12 -17 -20 -20 -18 -4 2 -20 -21 -36 -51 -18 -33 -36 -54 -46 -54 -20
0 -24 15 -8 25 13 8 13 65 1 65 -6 0 -13 -4 -16 -10 -14 -23 -22 -7 -17 35 4
44 -9 63 -22 30 -8 -21 -26 -19 -26 3 0 14 -2 15 -10 2 -9 -14 -14 -7 -11 13
1 5 -2 6 -7 3 -5 -3 -18 1 -28 9 -20 15 -19 16 34 20 26 2 32 -1 32 -17 0 -15
4 -17 18 -9 16 8 22 4 41 -29 25 -44 37 -52 27 -17 -4 12 -9 31 -11 42 -3 11
-14 27 -25 37 -27 22 -25 28 8 28 15 0 36 7 46 15 24 18 36 19 37 3z m-1086
-358 c4 -6 10 -8 15 -5 12 8 100 -15 100 -26 0 -5 13 -9 28 -9 16 0 47 -13 70
-30 48 -35 53 -44 16 -30 -49 19 -49 9 1 -18 100 -56 117 -72 74 -72 -23 0
-79 30 -79 42 0 4 -8 5 -17 2 -15 -5 -15 -4 -3 5 19 13 13 18 -34 26 -28 6
-37 5 -32 -4 4 -6 5 -11 1 -11 -8 0 -56 32 -78 51 -15 14 -25 15 -55 7 -25 -7
-37 -7 -40 0 -2 6 -10 8 -19 5 -11 -4 -14 -2 -9 5 10 16 43 15 49 0 3 -8 6 -6
6 5 1 10 -5 20 -13 23 -8 3 -12 13 -9 25 6 21 18 25 28 9z m-18 -836 c-8 -8
21 -30 88 -69 39 -23 46 -30 30 -33 -10 -2 -21 1 -23 7 -2 6 -9 11 -16 11 -7
0 -30 14 -51 30 -33 26 -39 28 -49 15 -6 -9 -25 -19 -41 -24 -26 -8 -20 -10
35 -11 46 -1 59 -4 45 -10 -16 -7 -12 -9 20 -9 30 -1 36 -4 25 -11 -24 -16
-82 -11 -129 10 -46 21 -71 25 -71 12 0 -13 46 -32 78 -33 27 -1 27 -1 -6 -15
-29 -13 -34 -13 -51 3 -23 22 -44 63 -34 64 90 7 135 20 114 33 -6 4 -11 2
-11 -3 0 -17 -50 -13 -56 4 -4 8 -16 15 -28 15 -17 0 -18 2 -6 10 16 11 147
14 137 4z m2482 -428 c16 -29 6 -50 -20 -43 -14 4 -19 0 -19 -13 0 -15 -5 -17
-27 -11 -19 5 -48 -1 -98 -21 -82 -32 -104 -35 -85 -13 22 26 -6 16 -36 -13
-31 -30 -158 -110 -212 -133 -18 -8 -35 -22 -38 -32 -12 -37 -96 -59 -169 -43
-16 3 -60 2 -97 -2 -38 -5 -68 -6 -68 -2 0 11 -64 -2 -72 -14 -5 -8 -8 -7 -8
2 0 18 -31 15 -47 -5 -7 -10 -13 -13 -12 -8 4 26 -3 28 -22 5 -12 -14 -19 -18
-16 -9 4 12 -4 15 -37 16 -22 0 -44 -4 -48 -11 -12 -18 -29 15 -22 44 9 42 35
59 98 65 33 3 66 11 75 18 12 10 13 9 6 -2 -7 -12 2 -13 51 -8 32 3 60 10 62
15 1 5 17 8 35 6 17 -2 45 0 62 5 16 5 46 12 66 15 20 4 67 27 105 51 81 53
246 109 349 119 39 3 95 15 125 25 75 27 104 27 119 -3z"/>
<path d="M16767 3844 c-16 -9 -37 -17 -47 -19 -9 -2 -40 -13 -68 -25 -41 -18
-52 -28 -57 -52 -4 -17 -23 -48 -43 -70 -25 -28 -32 -42 -24 -50 8 -8 49 14
147 78 142 91 186 131 163 146 -19 11 -39 9 -71 -8z"/>
<path d="M15260 2476 c-17 -10 -30 -11 -42 -5 -23 13 -48 -1 -70 -38 -19 -33
-16 -39 31 -72 48 -34 88 -21 119 39 39 79 24 110 -38 76z"/>
<path d="M13258 2385 c-3 -3 -52 -7 -109 -9 -57 -3 -120 -10 -139 -17 -19 -7
-54 -19 -78 -27 -36 -13 -41 -17 -27 -25 10 -5 38 -6 64 -2 25 4 71 9 101 10
30 2 89 8 130 14 41 6 133 13 205 16 140 6 202 15 197 30 -3 14 -97 13 -155
-1 -37 -9 -62 -8 -110 2 -73 16 -72 16 -79 9z"/>
<path d="M11784 2326 c-16 -8 -97 -26 -178 -40 -128 -23 -155 -31 -199 -60
-115 -76 -373 -159 -702 -226 -145 -30 -322 -74 -345 -86 l-25 -13 31 -1 c17
0 82 11 145 25 153 35 251 52 329 60 36 4 115 19 175 35 61 15 136 33 168 40
39 8 80 26 125 57 84 56 110 70 158 82 22 5 71 21 109 35 61 22 87 25 197 26
71 0 138 5 151 11 18 8 39 8 76 0 58 -12 101 -6 101 15 0 7 -12 16 -27 19 -16
4 -46 10 -68 15 -79 18 -188 20 -221 6z"/>
<path d="M14712 2261 c-8 -4 -19 -19 -26 -32 -9 -19 -19 -23 -44 -22 -23 2
-34 -2 -42 -17 -6 -11 -29 -29 -51 -41 -47 -24 -47 -45 1 -42 18 1 46 -5 62
-13 25 -13 31 -13 58 1 30 15 41 45 18 45 -7 0 2 13 20 29 25 23 32 38 32 65
0 37 -5 42 -28 27z"/>
<path d="M9890 1788 c-52 -10 -113 -23 -135 -29 -22 -6 -87 -22 -145 -36 -58
-13 -132 -31 -165 -39 -33 -8 -103 -19 -156 -24 -54 -6 -115 -17 -137 -24 -23
-8 -95 -20 -162 -27 -109 -11 -125 -11 -176 5 -42 13 -69 16 -103 10 -25 -4
-64 -7 -87 -5 -26 2 -45 -3 -53 -13 -10 -12 -6 -15 31 -20 220 -27 472 -25
618 4 52 10 127 24 165 30 39 6 133 29 210 52 77 22 174 49 215 59 88 23 124
36 165 61 35 21 38 21 -85 -4z"/>
<path d="M7998 1664 c-15 -14 -8 -22 25 -27 17 -2 101 -21 185 -41 84 -20 170
-36 190 -36 51 0 82 10 82 25 0 18 -41 27 -130 29 -53 1 -89 8 -122 24 -49 23
-216 42 -230 26z"/>
<path d="M3930 1437 c-25 -12 -61 -32 -80 -44 -19 -12 -59 -28 -90 -34 -67
-13 -116 -42 -134 -77 -19 -37 -52 -66 -109 -95 -26 -14 -71 -44 -99 -67 -33
-26 -57 -38 -67 -34 -9 3 -45 11 -80 17 l-64 10 -26 -31 c-21 -27 -33 -32 -67
-32 -32 0 -46 -6 -69 -30 -34 -36 -47 -37 -92 -9 -32 20 -36 21 -71 6 -20 -9
-48 -19 -62 -23 -38 -10 -67 -42 -75 -81 -7 -40 -71 -107 -122 -128 -18 -8
-39 -28 -49 -46 -15 -31 -15 -33 2 -46 32 -23 69 -15 115 25 46 41 80 62 99
62 20 0 33 -45 20 -70 -17 -32 -7 -34 35 -5 21 14 48 25 59 25 17 0 28 13 47
53 17 37 33 56 56 67 18 8 35 23 39 33 4 14 9 16 20 6 13 -10 12 -14 -1 -29
-8 -9 -15 -31 -15 -48 0 -28 3 -32 28 -33 15 0 36 -4 47 -8 26 -11 89 36 152
112 14 16 28 24 38 21 21 -8 45 -56 45 -89 0 -14 3 -25 6 -25 3 0 28 20 55 44
66 60 228 180 261 194 15 6 44 34 63 61 20 27 42 51 49 54 8 3 32 30 54 59 51
69 98 87 164 63 24 -9 51 -19 61 -22 10 -3 34 6 57 22 l39 27 -82 84 c-46 46
-89 84 -97 83 -8 0 -35 -10 -60 -22z"/>
<path d="M12525 1449 c-66 -3 -144 -10 -172 -14 l-53 -8 0 -38 c0 -46 -4 -45
127 -20 54 11 123 23 153 26 80 9 200 37 200 47 0 4 -12 8 -27 9 -16 1 -46 2
-68 2 -22 1 -94 -1 -160 -4z"/>
<path d="M11985 1404 c-107 -23 -115 -29 -115 -103 l0 -34 48 7 c26 3 106 19
177 34 l130 27 3 38 3 37 -113 -1 c-62 -1 -122 -3 -133 -5z"/>
<path d="M11541 1299 c-36 -4 -88 -20 -115 -34 -28 -15 -68 -29 -90 -31 -26
-2 -50 -14 -77 -39 -21 -19 -49 -37 -61 -39 -69 -14 -78 -17 -74 -25 3 -4 -27
-9 -66 -10 -72 -2 -148 -17 -243 -47 -27 -8 -74 -19 -104 -24 -58 -10 -81 -24
-81 -48 0 -8 -7 -23 -16 -33 -28 -31 -8 -40 74 -36 73 4 193 37 295 81 20 9
69 23 107 31 76 16 113 35 145 73 22 26 60 27 60 2 0 -19 65 -15 110 5 17 8
66 24 110 36 44 12 89 24 100 27 28 7 30 14 27 71 -3 40 -7 51 -20 50 -10 -1
-46 -5 -81 -10z"/>
<path d="M1 965 c0 -74 2 -135 3 -135 2 0 16 19 31 43 41 60 123 139 138 130
8 -5 8 -2 -1 9 -12 14 -9 15 27 2 34 -11 44 -11 67 1 16 8 31 10 34 5 3 -5 14
-8 25 -7 11 1 20 -4 20 -13 0 -10 9 -14 27 -12 15 1 29 -2 32 -7 7 -10 -49
-33 -58 -24 -3 4 -6 1 -6 -6 0 -8 -5 -9 -19 -2 -10 6 -22 7 -26 3 -5 -4 -5 -1
-1 6 10 17 -1 15 -35 -5 -16 -10 -29 -23 -29 -31 0 -7 -5 -10 -10 -7 -6 4 -21
0 -34 -9 -23 -14 -24 -14 -19 5 5 19 4 20 -15 8 -11 -7 -18 -17 -16 -21 3 -4
0 -8 -7 -8 -7 0 -10 -3 -6 -6 8 -8 -18 -34 -34 -34 -9 0 -8 4 1 15 7 8 9 15 4
15 -5 0 -18 -13 -28 -27 -17 -22 -17 -26 -3 -20 9 3 19 2 22 -4 4 -5 -1 -12
-9 -15 -9 -3 -13 -11 -9 -17 3 -6 1 -7 -5 -3 -7 4 -20 2 -29 -3 -14 -8 -15
-11 -3 -11 12 -1 11 -4 -4 -15 -10 -8 -15 -19 -10 -26 4 -8 3 -10 -4 -5 -7 4
-12 1 -12 -8 0 -9 5 -16 11 -16 8 0 7 -6 -2 -17 -10 -11 -10 -14 -1 -9 6 4 12
2 12 -3 0 -6 -5 -11 -11 -11 -16 0 -5 -100 12 -111 11 -7 10 -9 -3 -9 -13 0
-18 -8 -18 -31 0 -26 3 -29 20 -24 11 4 20 2 20 -4 0 -6 -10 -11 -22 -12 -13
0 -17 -3 -10 -6 14 -6 17 -33 2 -33 -5 0 -8 -24 -7 -52 l2 -53 38 2 c29 2 37
-1 37 -15 0 -14 2 -15 10 -2 5 8 10 11 10 6 0 -4 -14 -25 -32 -45 -24 -27 -30
-31 -26 -15 5 18 1 21 -17 20 -19 -1 -21 -4 -13 -20 7 -13 7 -16 -1 -12 -8 5
-11 -31 -11 -123 l0 -131 115 0 c73 0 115 4 115 10 0 7 6 7 19 0 35 -18 102
-12 129 13 l25 22 -6 -23 c-3 -12 -1 -22 4 -22 5 0 9 4 9 8 0 5 11 14 25 20
15 7 25 8 25 2 0 -6 -4 -10 -10 -10 -5 0 -10 -4 -10 -10 0 -15 32 -12 54 5 16
12 18 19 8 39 -9 21 -9 24 3 19 8 -3 15 -10 15 -16 0 -6 8 -4 17 6 16 16 16
18 -1 30 -16 12 -17 15 -3 20 9 3 18 0 21 -9 9 -23 34 -16 66 19 16 17 30 27
30 20 0 -7 -9 -17 -20 -23 -11 -6 -18 -15 -15 -19 2 -5 -6 -16 -20 -25 -18
-12 -25 -13 -25 -4 0 7 -7 2 -16 -10 -8 -12 -12 -27 -9 -32 3 -6 1 -10 -4 -10
-6 0 -11 -4 -11 -10 0 -6 141 -9 371 -10 344 0 373 1 385 17 13 17 13 17 14 1
0 -17 91 -18 1681 -18 l1681 0 -28 34 c-17 20 -45 40 -66 46 -21 6 -38 14 -38
19 0 11 -139 60 -170 59 -14 0 -61 12 -105 26 -44 15 -98 29 -120 32 -50 6
-111 22 -150 40 -29 13 -174 30 -205 25 -8 -2 -27 -12 -42 -23 -27 -19 -31
-19 -108 -3 -91 19 -279 23 -362 8 -36 -6 -63 -6 -74 0 -23 13 -149 0 -186
-19 -22 -11 -33 -13 -41 -5 -6 6 -31 11 -54 11 -24 0 -56 6 -71 14 -15 7 -61
19 -102 26 -41 6 -113 19 -160 28 -82 15 -287 22 -341 11 -14 -3 -36 -13 -49
-22 -34 -23 -57 -21 -96 8 -18 14 -37 24 -41 23 -5 -2 -19 7 -33 19 -13 13
-32 23 -42 23 -11 0 -28 15 -39 34 -17 30 -28 36 -77 46 -31 7 -100 30 -152
52 -52 22 -106 44 -120 50 -14 6 -69 14 -123 19 -93 8 -149 20 -190 41 -20 10
-146 28 -219 32 -43 2 -51 7 -110 69 -63 66 -161 131 -298 198 -25 12 -74 37
-110 55 -36 18 -96 39 -133 46 -37 7 -67 16 -67 20 0 13 -81 49 -103 46 -13
-2 -22 -10 -21 -19 1 -9 -5 -16 -13 -16 -8 0 -12 6 -9 13 6 15 -21 21 -127 29
l-67 5 1 -135z m523 -214 c3 -5 -6 -6 -19 -3 -14 2 -25 0 -25 -5 0 -5 -16 -15
-35 -22 -19 -7 -35 -17 -35 -22 0 -5 -9 -18 -19 -28 -10 -10 -22 -30 -26 -43
-7 -22 -7 -22 12 -5 11 9 26 17 34 17 8 0 23 7 33 15 28 21 53 19 59 -5 4 -16
2 -18 -11 -11 -21 12 -62 -4 -88 -35 -12 -14 -32 -27 -44 -29 -12 -2 -28 -10
-36 -16 -26 -21 -24 -4 2 24 15 16 20 27 12 27 -9 0 -9 3 2 10 8 5 12 11 9 15
-8 8 -59 -34 -59 -49 0 -7 -11 -23 -24 -35 -38 -36 -27 2 12 42 31 32 42 67
21 67 -5 0 -7 -4 -4 -10 3 -5 -1 -10 -10 -10 -9 0 -19 -9 -22 -20 -3 -11 -12
-20 -20 -20 -8 0 -11 -4 -8 -10 3 -5 -1 -10 -11 -10 -12 0 -6 11 22 44 22 24
47 56 57 70 20 29 40 35 30 10 -5 -14 -1 -15 28 -9 19 4 39 14 46 23 7 10 16
22 21 27 10 13 89 17 96 6z"/>
<path d="M4466 969 c-53 -40 -135 -41 -186 -4 -42 31 -108 34 -154 6 -17 -10
-50 -21 -73 -25 -58 -8 -89 -24 -101 -51 -9 -20 -19 -23 -94 -27 -63 -3 -94
-10 -128 -29 -25 -13 -47 -27 -50 -30 -18 -20 -105 -79 -117 -79 -8 0 -30 -17
-51 -39 -20 -21 -53 -44 -72 -52 -19 -7 -38 -17 -42 -23 -3 -5 -44 -11 -90
-14 -59 -3 -96 -11 -128 -27 -25 -12 -60 -26 -77 -30 -18 -3 -33 -10 -33 -15
0 -4 -16 -17 -35 -29 -21 -12 -35 -28 -35 -40 0 -11 -16 -32 -35 -47 -59 -44
-44 -57 28 -24 34 17 71 30 83 30 39 0 140 41 172 69 39 36 94 55 135 46 64
-13 77 -8 132 46 30 29 64 57 77 62 13 5 91 10 173 11 l150 2 135 61 c143 65
135 58 158 142 10 36 35 48 72 34 26 -10 45 -6 137 23 60 18 126 45 148 59
l40 24 -50 0 c-39 0 -58 -7 -89 -30z"/>
<path d="M2315 618 c-22 -12 -47 -25 -55 -28 -8 -4 -16 -16 -18 -28 -5 -30
-30 -47 -71 -47 -32 0 -36 -3 -44 -38 -5 -21 -7 -41 -3 -44 9 -9 59 15 133 64
37 25 82 49 98 52 27 6 30 11 33 49 4 50 -10 54 -73 20z"/>
</g>
</svg>
